<?xml version="1.0" encoding="utf-8"?>
<!-- Generator: Adobe Illustrator 17.0.0, SVG Export Plug-In . SVG Version: 6.00 Build 0)  -->
<!DOCTYPE svg PUBLIC "-//W3C//DTD SVG 1.1//EN" "http://www.w3.org/Graphics/SVG/1.1/DTD/svg11.dtd">
<svg version="1.1" id="Layer_1" xmlns="http://www.w3.org/2000/svg" xmlns:xlink="http://www.w3.org/1999/xlink" x="0px" y="0px"
	 width="86px" height="100px" viewBox="0 0 86 100" enable-background="new 0 0 86 100" xml:space="preserve">
<g>
	<g>
		<path d="M20.796,41.026v-3.801l15.063-11.051v46.947h-3.731v-40.19L20.796,41.026z"/>
		<path d="M79.358,59.044c0,5.279-0.845,8.305-3.027,10.699c-2.392,2.604-6.123,4.083-10.558,4.083
			c-4.505,0-8.235-1.478-10.628-4.153c-2.252-2.534-2.815-4.857-2.815-11.896V42.082c0-6.335,0.563-8.798,2.604-11.403
			c2.182-2.815,5.983-4.365,10.77-4.365c4.294,0,7.812,1.197,10.277,3.449c2.533,2.393,3.379,4.927,3.379,10.417V59.044z
			 M56.06,57.777c0,6.265,0.282,7.391,2.112,9.431c1.829,1.901,4.645,3.027,7.742,3.027c3.308,0,6.335-1.337,7.953-3.449
			c1.197-1.689,1.76-4.012,1.76-7.742V40.322c0-3.942-0.774-5.983-2.886-7.953c-1.829-1.619-4.223-2.463-6.897-2.463
			c-3.449,0-6.406,1.407-8.095,3.942c-1.337,1.97-1.689,3.73-1.689,8.375V57.777z"/>
	</g>
	<g>
		<path d="M50.322,100c-13.356,0-25.911-5.201-35.355-14.645C5.523,75.911,0.322,63.355,0.322,50
			c0-13.356,5.201-25.911,14.645-35.355C24.411,5.201,36.966,0,50.322,0c13.355,0,25.911,5.201,35.356,14.645l-2.63,2.629
			C74.307,8.533,62.684,3.719,50.322,3.719S26.337,8.533,17.596,17.274C8.855,26.015,4.041,37.638,4.041,50
			s4.814,23.985,13.556,32.726c8.741,8.742,20.363,13.556,32.726,13.556s23.985-4.814,32.726-13.556l2.63,2.63
			C76.233,94.799,63.677,100,50.322,100z"/>
	</g>
</g>
</svg>
